<mxfile host="app.diagrams.net" agent="Mozilla/5.0 (Windows NT 10.0; Win64; x64) AppleWebKit/537.36 (KHTML, like Gecko) Chrome/135.0.0.0 Safari/537.36" version="26.2.10">
  <diagram id="W8gf2pntZX4h6oX37k1E" name="Página-1">
    <mxGraphModel dx="1680" dy="914" grid="1" gridSize="10" guides="1" tooltips="1" connect="1" arrows="1" fold="1" page="1" pageScale="1" pageWidth="827" pageHeight="1169" math="0" shadow="0">
      <root>
        <mxCell id="0" />
        <mxCell id="1" parent="0" />
        <mxCell id="KtbFvMZ7oUjdtlLk4iKf-1" value="" style="strokeWidth=1;shadow=0;dashed=0;align=center;html=1;shape=mxgraph.mockup.containers.browserWindow;rSize=0;strokeColor=#666666;mainText=,;recursiveResize=0;rounded=0;labelBackgroundColor=none;fontFamily=Verdana;fontSize=12" parent="1" vertex="1">
          <mxGeometry x="50" y="40" width="1120" height="1030" as="geometry" />
        </mxCell>
        <mxCell id="KtbFvMZ7oUjdtlLk4iKf-2" value="Odoo" style="strokeWidth=1;shadow=0;dashed=0;align=center;html=1;shape=mxgraph.mockup.containers.anchor;fontSize=17;fontColor=#666666;align=left;" parent="KtbFvMZ7oUjdtlLk4iKf-1" vertex="1">
          <mxGeometry x="60" y="12" width="110" height="26" as="geometry" />
        </mxCell>
        <mxCell id="KtbFvMZ7oUjdtlLk4iKf-3" value="localhost:8069/pack/nuevo" style="strokeWidth=1;shadow=0;dashed=0;align=center;html=1;shape=mxgraph.mockup.containers.anchor;rSize=0;fontSize=17;fontColor=#666666;align=left;" parent="KtbFvMZ7oUjdtlLk4iKf-1" vertex="1">
          <mxGeometry x="130" y="60" width="250" height="26" as="geometry" />
        </mxCell>
        <mxCell id="KtbFvMZ7oUjdtlLk4iKf-4" value="&lt;font style=&quot;font-size: 20px;&quot;&gt;Pack / &lt;font style=&quot;color: light-dark(rgb(191, 191, 191), rgb(237, 237, 237));&quot;&gt;Nuevo&lt;/font&gt;&lt;/font&gt;" style="text;html=1;points=[];align=left;verticalAlign=top;spacingTop=-4;fontSize=30;fontFamily=Verdana" parent="KtbFvMZ7oUjdtlLk4iKf-1" vertex="1">
          <mxGeometry x="15" y="120" width="340" height="50" as="geometry" />
        </mxCell>
        <mxCell id="KtbFvMZ7oUjdtlLk4iKf-5" value="" style="verticalLabelPosition=bottom;shadow=0;dashed=0;align=center;html=1;verticalAlign=top;strokeWidth=1;shape=mxgraph.mockup.markup.line;strokeColor=#999999;rounded=0;labelBackgroundColor=none;fillColor=#ffffff;fontFamily=Verdana;fontSize=12;fontColor=#000000;" parent="KtbFvMZ7oUjdtlLk4iKf-1" vertex="1">
          <mxGeometry y="193" width="1120" height="20" as="geometry" />
        </mxCell>
        <mxCell id="KtbFvMZ7oUjdtlLk4iKf-6" value="Guardar" style="strokeWidth=1;shadow=0;dashed=0;align=center;html=1;shape=mxgraph.mockup.buttons.button;strokeColor=#9673a6;mainText=;buttonStyle=round;fontSize=17;fontStyle=0;fillColor=#e1d5e7;whiteSpace=wrap;rounded=0;labelBackgroundColor=none;" parent="KtbFvMZ7oUjdtlLk4iKf-1" vertex="1">
          <mxGeometry x="15" y="170" width="85" height="20" as="geometry" />
        </mxCell>
        <mxCell id="KtbFvMZ7oUjdtlLk4iKf-55" value="Descartar" style="strokeWidth=1;shadow=0;dashed=0;align=center;html=1;shape=mxgraph.mockup.buttons.button;strokeColor=#9673a6;mainText=;buttonStyle=round;fontSize=17;fontStyle=0;fillColor=none;whiteSpace=wrap;rounded=0;labelBackgroundColor=none;" parent="KtbFvMZ7oUjdtlLk4iKf-1" vertex="1">
          <mxGeometry x="105" y="170" width="95" height="20" as="geometry" />
        </mxCell>
        <mxCell id="KtbFvMZ7oUjdtlLk4iKf-56" value="" style="rounded=0;whiteSpace=wrap;html=1;fillColor=none;" parent="KtbFvMZ7oUjdtlLk4iKf-1" vertex="1">
          <mxGeometry x="210" y="220" width="660" height="740" as="geometry" />
        </mxCell>
        <mxCell id="KtbFvMZ7oUjdtlLk4iKf-57" value="&lt;font style=&quot;font-size: 16px;&quot;&gt;Pack&lt;/font&gt;" style="text;strokeColor=none;fillColor=none;align=left;verticalAlign=top;spacingLeft=4;spacingRight=4;overflow=hidden;rotatable=0;points=[[0,0.5],[1,0.5]];portConstraint=eastwest;whiteSpace=wrap;html=1;" parent="KtbFvMZ7oUjdtlLk4iKf-1" vertex="1">
          <mxGeometry x="280" y="240" width="90" height="30" as="geometry" />
        </mxCell>
        <mxCell id="KtbFvMZ7oUjdtlLk4iKf-58" value="Identificador del pack" style="strokeWidth=1;shadow=0;dashed=0;align=center;html=1;shape=mxgraph.mockup.text.textBox;fontColor=#666666;align=left;fontSize=17;spacingLeft=4;spacingTop=-3;whiteSpace=wrap;strokeColor=#666666;mainText=" parent="KtbFvMZ7oUjdtlLk4iKf-1" vertex="1">
          <mxGeometry x="280" y="280" width="310" height="30" as="geometry" />
        </mxCell>
        <mxCell id="KtbFvMZ7oUjdtlLk4iKf-60" value="&lt;font style=&quot;font-size: 16px;&quot;&gt;Nombre&lt;/font&gt;" style="text;strokeColor=none;fillColor=none;align=left;verticalAlign=top;spacingLeft=4;spacingRight=4;overflow=hidden;rotatable=0;points=[[0,0.5],[1,0.5]];portConstraint=eastwest;whiteSpace=wrap;html=1;" parent="KtbFvMZ7oUjdtlLk4iKf-1" vertex="1">
          <mxGeometry x="280" y="369" width="90" height="26" as="geometry" />
        </mxCell>
        <mxCell id="Pt9-DW9MEc0Vwg_8VI7V-1" value="&lt;font style=&quot;font-size: 16px;&quot;&gt;Nombre del pack&lt;/font&gt;" style="strokeWidth=1;shadow=0;dashed=0;align=center;html=1;shape=mxgraph.mockup.text.textBox;fontColor=#666666;align=left;fontSize=17;spacingLeft=4;spacingTop=-3;whiteSpace=wrap;strokeColor=#666666;mainText=" parent="KtbFvMZ7oUjdtlLk4iKf-1" vertex="1">
          <mxGeometry x="370" y="369" width="210" height="40" as="geometry" />
        </mxCell>
        <mxCell id="Pt9-DW9MEc0Vwg_8VI7V-5" value="&lt;font style=&quot;color: light-dark(rgb(176, 176, 176), rgb(237, 237, 237));&quot;&gt;Crear Pack&lt;/font&gt;" style="strokeWidth=1;shadow=0;dashed=0;align=center;html=1;shape=mxgraph.mockup.buttons.button;strokeColor=#9673a6;mainText=;buttonStyle=round;fontSize=17;fontStyle=0;fillColor=#e1d5e7;whiteSpace=wrap;rounded=0;labelBackgroundColor=none;opacity=40;" parent="KtbFvMZ7oUjdtlLk4iKf-1" vertex="1">
          <mxGeometry x="364" y="810" width="210" height="45.5" as="geometry" />
        </mxCell>
        <mxCell id="WZMsDFa9egVdXEinpYOX-7" value="&lt;span style=&quot;font-size: 16px;&quot;&gt;Precio&lt;/span&gt;" style="text;strokeColor=none;fillColor=none;align=left;verticalAlign=top;spacingLeft=4;spacingRight=4;overflow=hidden;rotatable=0;points=[[0,0.5],[1,0.5]];portConstraint=eastwest;whiteSpace=wrap;html=1;" vertex="1" parent="KtbFvMZ7oUjdtlLk4iKf-1">
          <mxGeometry x="280" y="450" width="90" height="26" as="geometry" />
        </mxCell>
        <mxCell id="WZMsDFa9egVdXEinpYOX-42" value="" style="group" vertex="1" connectable="0" parent="KtbFvMZ7oUjdtlLk4iKf-1">
          <mxGeometry x="280" y="520" width="360" height="252.5" as="geometry" />
        </mxCell>
        <mxCell id="WZMsDFa9egVdXEinpYOX-1" value="&lt;span style=&quot;font-size: 16px;&quot;&gt;Contenido&lt;/span&gt;" style="text;strokeColor=none;fillColor=none;align=left;verticalAlign=top;spacingLeft=4;spacingRight=4;overflow=hidden;rotatable=0;points=[[0,0.5],[1,0.5]];portConstraint=eastwest;whiteSpace=wrap;html=1;" vertex="1" parent="WZMsDFa9egVdXEinpYOX-42">
          <mxGeometry width="90" height="26" as="geometry" />
        </mxCell>
        <mxCell id="WZMsDFa9egVdXEinpYOX-34" value="" style="rounded=1;arcSize=9;fillColor=#ffffff;strokeColor=#4C9AFF;html=1;strokeWidth=2;spacingLeft=30;fontColor=#000000;align=left" vertex="1" parent="WZMsDFa9egVdXEinpYOX-42">
          <mxGeometry x="90" width="210" height="33" as="geometry" />
        </mxCell>
        <mxCell id="WZMsDFa9egVdXEinpYOX-35" value="" style="shape=step;whiteSpace=wrap;html=1;rounded=0;strokeColor=none;strokeWidth=2;fillColor=#0A1E43;gradientColor=none;fontFamily=Verdana;fontSize=14;fontColor=#000000;align=left;direction=south;size=0.65;" vertex="1" parent="WZMsDFa9egVdXEinpYOX-34">
          <mxGeometry x="1" y="0.5" width="10" height="7" relative="1" as="geometry">
            <mxPoint x="-24" y="-3" as="offset" />
          </mxGeometry>
        </mxCell>
        <mxCell id="WZMsDFa9egVdXEinpYOX-36" value="Transporte" style="rounded=1;arcSize=9;fillColor=#ECEDF1;strokeColor=none;html=1;strokeWidth=2;spacingLeft=4;fontColor=#000000;align=left;fontSize=11" vertex="1" parent="WZMsDFa9egVdXEinpYOX-34">
          <mxGeometry y="0.5" width="80" height="20" relative="1" as="geometry">
            <mxPoint x="5" y="-10" as="offset" />
          </mxGeometry>
        </mxCell>
        <mxCell id="WZMsDFa9egVdXEinpYOX-37" value="" style="html=1;shadow=0;dashed=0;shape=mxgraph.atlassian.x;strokeColor=#58667F;strokeWidth=2" vertex="1" parent="WZMsDFa9egVdXEinpYOX-36">
          <mxGeometry x="1" y="0.5" width="7" height="7" relative="1" as="geometry">
            <mxPoint x="-14" y="-3" as="offset" />
          </mxGeometry>
        </mxCell>
        <mxCell id="WZMsDFa9egVdXEinpYOX-40" value="Seguro" style="rounded=1;arcSize=9;fillColor=#ECEDF1;strokeColor=none;html=1;strokeWidth=2;spacingLeft=4;fontColor=#000000;align=left;fontSize=11" vertex="1" parent="WZMsDFa9egVdXEinpYOX-34">
          <mxGeometry x="90" y="6.5" width="80" height="20" as="geometry" />
        </mxCell>
        <mxCell id="WZMsDFa9egVdXEinpYOX-41" value="" style="html=1;shadow=0;dashed=0;shape=mxgraph.atlassian.x;strokeColor=#58667F;strokeWidth=2" vertex="1" parent="WZMsDFa9egVdXEinpYOX-40">
          <mxGeometry x="1" y="0.5" width="7" height="7" relative="1" as="geometry">
            <mxPoint x="-14" y="-3" as="offset" />
          </mxGeometry>
        </mxCell>
        <mxCell id="WZMsDFa9egVdXEinpYOX-38" value="&lt;font color=&quot;#596780&quot;&gt;&lt;b&gt;PRODUCTOS&lt;/b&gt;&lt;/font&gt;&lt;br&gt;&lt;div&gt;&lt;br&gt;&lt;div&gt;Botella de agua 0,5 L&lt;/div&gt;&lt;br&gt;&lt;div&gt;Sándwich&lt;/div&gt;&lt;br&gt;&lt;div&gt;&lt;/div&gt;&lt;div&gt;&lt;b&gt;&lt;font color=&quot;#596780&quot;&gt;SERVICIOS&lt;/font&gt;&lt;/b&gt;&lt;/div&gt;&lt;div&gt;&lt;br&gt;&lt;/div&gt;&lt;div&gt;Transporte equipaje&lt;/div&gt;&lt;div&gt;&lt;br&gt;&lt;/div&gt;&lt;div&gt;Seguro básico&lt;/div&gt;&lt;div&gt;&lt;br&gt;&lt;/div&gt;&lt;div&gt;...&lt;/div&gt;&lt;div&gt;&lt;br&gt;&lt;/div&gt;&lt;/div&gt;" style="html=1;rounded=1;fillColor=#ffffff;strokeColor=#DFE1E5;fontSize=12;align=left;fontColor=#000000;shadow=1;arcSize=1;whiteSpace=wrap;spacing=2;verticalAlign=top;fontStyle=0;spacingLeft=20;spacingTop=15;" vertex="1" parent="WZMsDFa9egVdXEinpYOX-42">
          <mxGeometry x="90" y="35" width="270" height="217.5" as="geometry" />
        </mxCell>
        <mxCell id="WZMsDFa9egVdXEinpYOX-39" value="" style="rounded=0;fillColor=#000000;strokeColor=none;html=1;opacity=10;resizeWidth=1" vertex="1" parent="WZMsDFa9egVdXEinpYOX-38">
          <mxGeometry width="270" height="33" relative="1" as="geometry">
            <mxPoint y="41" as="offset" />
          </mxGeometry>
        </mxCell>
        <mxCell id="WZMsDFa9egVdXEinpYOX-44" value="&lt;font style=&quot;font-size: 16px;&quot;&gt;&amp;nbsp;0&lt;/font&gt;" style="strokeWidth=1;shadow=0;dashed=0;align=center;html=1;shape=mxgraph.mockup.text.textBox;fontColor=#666666;align=left;fontSize=17;spacingLeft=4;spacingTop=-3;whiteSpace=wrap;strokeColor=#666666;mainText=" vertex="1" parent="KtbFvMZ7oUjdtlLk4iKf-1">
          <mxGeometry x="370" y="443" width="210" height="40" as="geometry" />
        </mxCell>
        <mxCell id="WZMsDFa9egVdXEinpYOX-43" value="" style="shape=image;html=1;verticalAlign=top;verticalLabelPosition=bottom;labelBackgroundColor=#ffffff;imageAspect=0;aspect=fixed;image=https://cdn1.iconfinder.com/data/icons/heroicons-solid/20/selector-128.png" vertex="1" parent="KtbFvMZ7oUjdtlLk4iKf-1">
          <mxGeometry x="545" y="448" width="30" height="30" as="geometry" />
        </mxCell>
      </root>
    </mxGraphModel>
  </diagram>
</mxfile>
